<svg xmlns="http://www.w3.org/2000/svg" enable-background="new 0 0 24 24" viewBox="0 0 24 24"><path fill="#F36003" d="M24,2.571C24,1.152,22.847,0,21.429,0H2.571C1.152,0,0,1.152,0,2.571v18.857C0,22.848,1.152,24,2.571,24h18.858C22.847,24,24,22.848,24,21.429V2.571L24,2.571z M12.813,13.452v5.405h-1.682v-5.501L6.857,5.143h1.997c2.812,5.266,2.636,5.421,3.178,6.727c0.659-1.447,0.31-1.307,3.246-6.727h1.864L12.813,13.452L12.813,13.452L12.813,13.452z"/><path fill="#DEDEDE" d="M8.854,5.143H6.857l4.275,8.212v5.501H12v-7.062C11.495,10.556,11.61,10.305,8.854,5.143L8.854,5.143z"/><path fill="#D45403" d="M12,0H2.571C1.152,0,0,1.152,0,2.571v18.857C0,22.848,1.152,24,2.571,24H12v-5.143h-0.868v-5.501L6.857,5.143h1.997c2.757,5.162,2.641,5.413,3.146,6.651V0L12,0z"/></svg>